<?xml version="1.0" encoding="UTF-8" standalone="no"?>
<!-- Created with Inkscape (http://www.inkscape.org/) -->

<svg
   width="4.0900216mm"
   height="4.0900302mm"
   viewBox="0 0 4.0900216 4.0900302"
   version="1.1"
   id="svg5"
   inkscape:version="1.1.1 (3bf5ae0, 2021-09-20)"
   sodipodi:docname="search.svg"
   xmlns:inkscape="http://www.inkscape.org/namespaces/inkscape"
   xmlns:sodipodi="http://sodipodi.sourceforge.net/DTD/sodipodi-0.dtd"
   xmlns="http://www.w3.org/2000/svg"
   xmlns:svg="http://www.w3.org/2000/svg">
  <sodipodi:namedview
     id="namedview7"
     pagecolor="#ffffff"
     bordercolor="#666666"
     borderopacity="1.0"
     inkscape:pageshadow="2"
     inkscape:pageopacity="0.0"
     inkscape:pagecheckerboard="0"
     inkscape:document-units="mm"
     showgrid="false"
     fit-margin-top="0"
     fit-margin-left="0"
     fit-margin-right="0"
     fit-margin-bottom="0"
     inkscape:zoom="11.107158"
     inkscape:cx="-41.009589"
     inkscape:cy="11.5241"
     inkscape:window-width="1920"
     inkscape:window-height="1115"
     inkscape:window-x="0"
     inkscape:window-y="0"
     inkscape:window-maximized="1"
     inkscape:current-layer="layer1" />
  <defs
     id="defs2" />
  <g
     inkscape:label="Layer 1"
     inkscape:groupmode="layer"
     id="layer1"
     transform="translate(-74.497271,-159.41136)">
    <path
       d="m 78.135609,163.4239 c 0.10332,0.10332 0.270854,0.10332 0.374174,0 0.103346,-0.10335 0.103346,-0.27085 0,-0.3742 z m -0.504878,-1.25323 c -0.103319,-0.10334 -0.270827,-0.10334 -0.374173,0 -0.10332,0.10332 -0.10332,0.27083 0,0.37418 z m -1.297913,0.38262 c -0.721495,0 -1.30638,-0.58489 -1.30638,-1.30638 h -0.529167 c 0,1.01375 0.821801,1.83555 1.835547,1.83555 z m -1.30638,-1.30638 c 0,-0.7215 0.584885,-1.30638 1.30638,-1.30638 v -0.52917 c -1.013746,0 -1.835547,0.8218 -1.835547,1.83555 z m 1.30638,-1.30638 c 0.721492,0 1.30638,0.58488 1.30638,1.30638 h 0.529167 c 0,-1.01375 -0.821796,-1.83555 -1.835547,-1.83555 z m 1.30638,1.30638 c 0,0.72149 -0.584888,1.30638 -1.30638,1.30638 v 0.52917 c 1.013751,0 1.835547,-0.8218 1.835547,-1.83555 z m 0.870585,1.80279 -0.879052,-0.87903 -0.374173,0.37418 0.879051,0.87905 z"
       fill="#3e424b"
       id="path824"
       style="stroke-width:0.264583" />
  </g>
</svg>
